# xmcd
#
# Track frame offsets: 
#        150
#        14844
#        36587
#        51555
#        68910
#        84021
#
# Disc length: 1440 seconds
#
# Revision: 2
# Processed by: cddbd v1.5.2PL0 Copyright (c) Steve Scherf et al.
# Submitted via: ExactAudioCopy v0.95b4
#
DISCID=51059e06
DTITLE=Infernal Execrator - Antichrist Execration
DYEAR=2008
DGENRE=Black Metal
TTITLE0=Massacre Of The Evangelists
TTITLE1=Antichrist Execration
TTITLE2=Armageddon Bestial Battle
TTITLE3=Final Blasphemy (Ultimate Irreverent)
TTITLE4=Pure Genocidal Apocalypse
TTITLE5=Sodomythical Frostgoats
EXTD=
EXTT0=
EXTT1=
EXTT2=
EXTT3=
EXTT4=
EXTT5=
PLAYORDER=
